<?xml version="1.0" encoding="utf-8"?>
<!-- Generator: Adobe Illustrator 23.1.0, SVG Export Plug-In . SVG Version: 6.00 Build 0)  -->
<svg version="1.1" id="Layer_1" xmlns="http://www.w3.org/2000/svg" xmlns:xlink="http://www.w3.org/1999/xlink" x="0px" y="0px"
	 viewBox="0 0 557.3 154" style="enable-background:new 0 0 557.3 154;" xml:space="preserve">
<style type="text/css">
	.st0{fill-rule:evenodd;clip-rule:evenodd;fill:#46B49F;}
	.st1{fill-rule:evenodd;clip-rule:evenodd;fill:#1E3582;}
	.st2{fill:#1E3582;}
	.st3{fill-rule:evenodd;clip-rule:evenodd;fill:#46B49F;stroke:#46B49F;stroke-width:0.216;stroke-miterlimit:288;}
	.st4{fill:#46B49F;}
</style>
<g id="Layer_x0020_1">
	<g id="_247873352">
		<path id="_246885496" class="st0" d="M73.4,35.2l0,42.5H31.3C31.3,54.3,50,35.2,73.4,35.2L73.4,35.2z"/>
		<g>
			<path id="_246885568" class="st1" d="M72.9,7.1c-1,3.2-0.9,17.8-12.1,20.7C43.8,32.6,25.9,46,22.6,67.7c-0.3,3.1-0.5,6.4-0.5,10
				H1.9C3.3,31.9,34.1,11,72.9,7.1L72.9,7.1z"/>
			<path class="st2" d="M61.1,29.1l-0.8-2.8l0,0l0.9-0.3l0.8-0.3l0.8-0.4l0.7-0.4l0.7-0.5l0.6-0.5l0.6-0.6l0.5-0.6l0.5-0.6l0.5-0.7
				l0.4-0.7l0.4-0.7l0.4-0.7l0.3-0.8l0.3-0.8l0.3-0.8l0.3-0.8l0.2-0.8l0.2-0.8l0.2-0.8l0.2-0.8l0.1-0.7l0.1-0.7l0.1-0.7l0.1-0.7
				l0.1-0.6L71,9.1l0.1-0.6L71.2,8l0.1-0.5L71.4,7l0.1-0.4l2.7,0.9l-0.1,0.2l-0.1,0.3L74,8.5L73.9,9l-0.1,0.5l-0.1,0.6l-0.1,0.6
				l-0.1,0.7l-0.1,0.7l-0.1,0.8l-0.2,0.8l-0.2,0.8l-0.2,0.8l-0.2,0.8l-0.2,0.9L72,18l-0.3,0.9l-0.3,0.9l-0.4,0.9l-0.4,0.9L70,22.3
				l-0.5,0.8l-0.6,0.8l-0.6,0.8l-0.7,0.7l-0.7,0.7l-0.8,0.6l-0.9,0.6l-0.9,0.5l-1,0.5l-1.1,0.4L61.1,29.1
				C61.1,29.1,61.1,29.1,61.1,29.1z M60.3,26.3L60.3,26.3l0.1,0C60.4,26.3,60.3,26.3,60.3,26.3z M24,67.8l-2.9-0.3l0-0.1l0.4-2.1
				l0.5-2l0.5-2l0.6-1.9l0.7-1.9l0.8-1.8l0.8-1.8l0.9-1.7l1-1.7l1-1.6l1.1-1.6l1.1-1.5l1.2-1.5L33,43l1.3-1.4l1.3-1.3l1.4-1.3
				l1.4-1.2l1.4-1.2l1.5-1.1l1.5-1.1l1.5-1l1.6-1l1.6-0.9l1.6-0.9l1.6-0.8l1.6-0.7l1.6-0.7l1.6-0.6l1.6-0.6l1.6-0.5l1.6-0.5l0.8,2.8
				l-1.5,0.5L58,30.1l-1.5,0.6l-1.5,0.6l-1.5,0.7l-1.5,0.7l-1.5,0.8l-1.5,0.8l-1.5,0.9L45.8,36L44.4,37L43,38l-1.4,1l-1.4,1.1
				l-1.3,1.1l-1.3,1.2l-1.3,1.2L35.1,45l-1.2,1.3l-1.1,1.4l-1.1,1.4l-1,1.5l-1,1.5l-0.9,1.6L28,55.3l-0.8,1.7l-0.7,1.7l-0.6,1.8
				l-0.6,1.8L24.8,64l-0.4,1.9L24,67.8C24,67.9,24,67.8,24,67.8z M21.2,67.5L21.2,67.5L21.2,67.5C21.2,67.4,21.2,67.5,21.2,67.5z
				 M22.1,79.1v-2.9l-1.4,1.4l0-0.3V77l0-0.3l0-0.3l0-0.3l0-0.3l0-0.3l0-0.3l0-0.3l0-0.3l0-0.3l0-0.3l0-0.3l0-0.3l0-0.3l0-0.3l0-0.3
				l0-0.3l0-0.3l0-0.3l0-0.3l0-0.3l0-0.3l0-0.3l0-0.3l0-0.3l0-0.3l0-0.3l0-0.3l0-0.3l0-0.3l0-0.3l2.9,0.3l0,0.3l0,0.3l0,0.3l0,0.3
				l0,0.3l0,0.3l0,0.3l0,0.3l0,0.3l0,0.3l0,0.3l0,0.3l0,0.3l0,0.3l0,0.3l0,0.3l0,0.3l0,0.3l0,0.3l0,0.3l0,0.3l0,0.3l0,0.3l0,0.3
				l0,0.3l0,0.3l0,0.3l0,0.3l0,0.3l0,0.3v0.3l0,0.3C23.6,77.6,22.1,79.1,22.1,79.1z M23.6,77.6l0,1.4h-1.4L23.6,77.6z M0.5,77.6
				l1.4-1.4h20.2v2.9H1.9C1.9,79.1,0.5,77.6,0.5,77.6z M1.9,79.1H0.4l0-1.5L1.9,79.1z M74.2,7.5l-2.7-0.9L73,8.5l-3.6,0.4l-3.5,0.5
				L62.4,10l-3.4,0.7l-3.3,0.8l-3.3,0.9l-3.2,1l-3.1,1.1l-3,1.2l-3,1.4l-2.9,1.5l-2.8,1.6L31.8,22l-2.6,1.8l-2.5,1.9l-2.4,2L22,29.9
				l-2.2,2.3l-2.1,2.4l-1.9,2.5l-1.8,2.6l-1.7,2.8l-1.6,2.9l-1.4,3l-1.3,3.2L7,54.9l-1,3.4l-0.8,3.6l-0.7,3.7l-0.5,3.9l-0.4,4
				l-0.2,4.1l-2.9-0.1l0.2-4.3l0.4-4.1l0.6-4l0.7-3.9l0.9-3.7l1-3.6l1.2-3.4l1.3-3.3l1.5-3.2l1.6-3l1.8-2.9l1.9-2.8l2-2.6l2.1-2.5
				l2.3-2.4l2.4-2.3l2.5-2.1l2.6-2l2.7-1.9l2.8-1.8l2.9-1.6l3-1.5l3.1-1.4l3.1-1.3l3.2-1.2l3.3-1.1L55,8.8L58.4,8l3.5-0.7l3.6-0.6
				l3.6-0.5l3.7-0.4C72.7,5.6,74.2,7.5,74.2,7.5z M72.7,5.6l2.2-0.2l-0.7,2.1C74.2,7.5,72.7,5.6,72.7,5.6z"/>
		</g>
		<path class="st0" d="M31.2,120.2l0-42.5h42.2C73.4,101.1,54.7,120.2,31.2,120.2L31.2,120.2z"/>
		<g>
			<path class="st1" d="M31.8,148.3c1-3.2,0.8-17.9,12-20.7c17.2-4.8,34.6-18,38.2-39.9c0.3-3.1,0.5-6.4,0.5-10h20.2
				C101.4,123.5,70.6,144.4,31.8,148.3L31.8,148.3z"/>
			<path class="st2" d="M43.5,126.2l0.8,2.8l0,0l-0.9,0.3l-0.8,0.3l-0.8,0.4l-0.7,0.4l-0.7,0.5l-0.6,0.5L39,132l-0.5,0.6l-0.5,0.6
				l-0.5,0.7l-0.4,0.7l-0.4,0.7l-0.4,0.7l-0.3,0.8l-0.3,0.8l-0.3,0.8l-0.2,0.8l-0.2,0.8l-0.2,0.8l-0.2,0.8l-0.2,0.8l-0.1,0.7
				l-0.1,0.7l-0.1,0.7l-0.1,0.7l-0.1,0.6l-0.1,0.6l-0.1,0.6l-0.1,0.5l-0.1,0.5l-0.1,0.5l-0.1,0.4l-2.7-0.9l0.1-0.2l0.1-0.3l0.1-0.4
				l0.1-0.5l0.1-0.5l0.1-0.6l0.1-0.6l0.1-0.7l0.1-0.7l0.1-0.8l0.2-0.8l0.2-0.8l0.2-0.8l0.2-0.9l0.2-0.9l0.3-0.9l0.3-0.9l0.3-0.9
				l0.4-0.9l0.4-0.9l0.5-0.8l0.5-0.8l0.6-0.8l0.6-0.8l0.7-0.7l0.7-0.7l0.8-0.7l0.9-0.6l0.9-0.5l1-0.5l1.1-0.4L43.5,126.2
				C43.5,126.2,43.5,126.2,43.5,126.2z M44.2,129L44.2,129l-0.2,0.1L44.2,129z M80.7,87.6l2.9,0.3l0,0.1l-0.4,2.1l-0.5,2l-0.6,2
				L81.5,96l-0.7,1.9L80,99.7l-0.8,1.8l-0.9,1.7l-1,1.7l-1,1.6l-1.1,1.6l-1.1,1.5l-1.2,1.5l-1.2,1.4l-1.3,1.4l-1.3,1.3l-1.4,1.3
				l-1.4,1.2l-1.4,1.2l-1.5,1.1l-1.5,1l-1.5,1l-1.5,0.9l-1.6,0.9l-1.6,0.8l-1.6,0.8l-1.6,0.7l-1.6,0.7l-1.6,0.6l-1.6,0.6l-1.6,0.5
				l-1.7,0.5l-0.8-2.8l1.6-0.5l1.6-0.5l1.6-0.6l1.6-0.6l1.6-0.7l1.5-0.7l1.5-0.7l1.5-0.8l1.5-0.8l1.5-0.9l1.4-0.9l1.4-1l1.4-1
				l1.4-1.1l1.3-1.1l1.3-1.2l1.2-1.2l1.2-1.3l1.2-1.3l1.1-1.4l1.1-1.4l1-1.5l1-1.5l0.9-1.6l0.8-1.6l0.8-1.7l0.7-1.7l0.7-1.8l0.6-1.8
				l0.5-1.9l0.4-1.9L80.7,87.6C80.7,87.5,80.7,87.6,80.7,87.6z M83.5,87.9L83.5,87.9L83.5,87.9L83.5,87.9z M82.6,76.3v2.9l1.4-1.4
				l0,0.3v0.3l0,0.3l0,0.3l0,0.3l0,0.3l0,0.3l0,0.3l0,0.3l0,0.3l0,0.3l0,0.3l0,0.3l0,0.3l0,0.3l0,0.3l0,0.3l0,0.3l0,0.3l0,0.3l0,0.3
				l0,0.3l0,0.3l0,0.3l0,0.3l0,0.3l0,0.3l0,0.3l0,0.3l0,0.3l0,0.3l0,0.3l-2.9-0.3l0-0.3l0-0.3l0-0.3l0-0.3l0-0.3l0-0.3l0-0.3l0-0.3
				l0-0.3l0-0.3l0-0.3l0-0.3l0-0.3l0-0.3l0-0.3l0-0.3l0-0.3l0-0.3l0-0.3l0-0.3l0-0.3l0-0.3l0-0.3l0-0.3l0-0.3l0-0.3l0-0.3l0-0.3
				l0-0.3l0-0.3v-0.3l0-0.3C81.1,77.8,82.6,76.3,82.6,76.3z M81.1,77.8l0-1.4h1.4L81.1,77.8z M104.2,77.8l-1.4,1.4H82.6v-2.9h20.2
				L104.2,77.8z M102.8,76.3h1.5l0,1.5L102.8,76.3z M30.5,147.9l2.7,0.9l-1.5-1.9l3.6-0.4l3.5-0.5l3.5-0.6l3.4-0.7l3.3-0.8l3.3-0.9
				l3.2-1l3.1-1.1l3-1.2l3-1.4l2.9-1.5l2.8-1.6l2.7-1.7l2.6-1.8l2.5-1.9l2.4-2l2.3-2.2l2.2-2.3l2.1-2.4l1.9-2.5l1.8-2.6l1.7-2.8
				l1.6-2.9l1.4-3l1.3-3.2l1.1-3.3l1-3.4l0.8-3.6l0.7-3.7l0.5-3.9l0.4-4l0.2-4.1l2.9,0.1l-0.2,4.3l-0.4,4.1l-0.6,4l-0.7,3.9
				l-0.9,3.7l-1,3.6l-1.2,3.4l-1.3,3.3l-1.5,3.2l-1.6,3l-1.8,2.9l-1.9,2.8l-2,2.6l-2.1,2.5l-2.3,2.4l-2.4,2.3l-2.5,2.1l-2.6,2
				l-2.7,1.9l-2.8,1.8l-2.9,1.6l-3,1.5l-3.1,1.4l-3.1,1.3l-3.2,1.2l-3.3,1.1l-3.4,0.9l-3.4,0.8l-3.5,0.7l-3.6,0.6l-3.6,0.5l-3.7,0.4
				C32,149.8,30.5,147.9,30.5,147.9z M32,149.8l-2.2,0.2l0.7-2.1L32,149.8z"/>
		</g>
		<rect x="32.7" y="75.8" class="st3" width="39.3" height="3.6"/>
		<path class="st4" d="M351,16.1c-0.8,0-1.6,0.1-2.4,0.2c-0.8,0.1-1.5,0.4-2,0.7c-0.6,0.3-1.1,0.7-1.4,1.2c-0.4,0.5-0.5,1-0.5,1.7
			c0,1,0.3,1.8,0.7,2.3c0.5,0.6,1.3,1,2.3,1.5c1,0.4,2.3,0.8,3.8,1.3c1.5,0.4,3.3,1,5.3,1.7c2.6,0.9,5,1.9,7.1,3.2
			c2.1,1.3,4,2.7,5.5,4.4c1.5,1.7,2.7,3.6,3.5,5.7c0.8,2.1,1.3,4.5,1.3,7.1c0,3.2-0.7,6.2-2.1,8.9c-1.4,2.7-3.2,5-5.5,7
			c-2.3,1.9-4.9,3.4-7.9,4.5c-3,1.1-6.1,1.6-9.3,1.6c-2.7,0-5.4-0.4-7.8-1.2c-2.5-0.8-4.8-2-6.8-3.4c-2.1-1.5-3.9-3.2-5.5-5.2
			c-1.6-2-2.8-4.2-3.7-6.6l4.9-2.8c0.8-0.4,1.6-0.8,2.5-1.1c0.9-0.3,1.8-0.4,2.7-0.4c1.3,0,2.6,0.3,3.6,0.8c1.1,0.6,2.1,1.2,3.2,1.8
			c1,0.7,2.1,1.3,3.2,1.8c1.1,0.6,2.3,0.8,3.7,0.8c0.9,0,2-0.2,3.1-0.5c1.1-0.3,2.1-0.7,3.1-1.3c1-0.6,1.7-1.3,2.4-2.1
			c0.6-0.8,0.9-1.8,0.9-2.9c0-1-0.3-1.9-0.9-2.5c-0.6-0.7-1.4-1.2-2.3-1.7c-1-0.5-2.1-0.9-3.4-1.3c-1.3-0.4-2.6-0.9-4-1.5
			c-2.3-0.9-4.6-1.8-6.8-2.9c-2.2-1-4.3-2.3-6-3.8c-1.8-1.5-3.2-3.4-4.3-5.5c-1.1-2.2-1.7-4.9-1.7-8.1c0-3,0.6-5.7,1.9-8.1
			s2.9-4.3,4.9-6c2-1.6,4.4-2.9,7-3.7c2.6-0.9,5.3-1.3,8-1.3c2,0,4,0.3,5.8,1c1.9,0.7,3.7,1.5,5.4,2.6c1.7,1.1,3.3,2.3,4.7,3.7
			c1.5,1.4,2.8,2.8,4,4.2l-4.7,4c-0.9,0.8-1.9,1.4-2.9,1.7c-1,0.3-2.2,0.5-3.4,0.5c-1,0-1.9-0.1-2.6-0.4c-0.7-0.2-1.5-0.5-2.1-0.8
			c-0.7-0.3-1.3-0.6-2-0.8C352.5,16.3,351.8,16.1,351,16.1L351,16.1z M428.5,41.3c0,1.5-0.3,2.7-0.9,3.8c-0.6,1-1.3,1.9-2.2,2.6
			c-0.9,0.7-1.9,1.1-3,1.4c-1.1,0.3-2.1,0.5-3.1,0.5H395c0.3,1.1,0.9,2.1,1.6,3c0.6,0.7,1.5,1.4,2.6,2.1c1.1,0.6,2.5,0.9,4.2,0.9
			c0.9,0,1.8-0.1,2.6-0.4c0.8-0.3,1.6-0.6,2.5-0.9c0.8-0.3,1.7-0.6,2.5-0.9c0.9-0.3,1.8-0.4,2.8-0.4c1.5,0,2.7,0.2,3.8,0.7
			c1.1,0.5,2.1,1.2,3,2.1l3.9,3.9c-3,3.2-6.2,5.6-9.8,7.2c-3.6,1.6-7.3,2.4-11,2.4c-3.5,0-6.8-0.7-9.9-2c-3.1-1.3-5.8-3.1-8.1-5.4
			c-2.3-2.3-4.1-5-5.5-8.1c-1.3-3.1-2-6.3-2-9.8c0-3.5,0.7-6.7,2-9.8c1.3-3.1,3.2-5.8,5.5-8.1c2.3-2.3,5-4.1,8.1-5.4
			c3.1-1.3,6.4-2,9.9-2c2.9,0,5.7,0.5,8.4,1.6c2.7,1,5.1,2.5,7.3,4.2c2.2,1.8,4.1,3.9,5.6,6.2c1.6,2.4,2.7,4.9,3.3,7.6
			c0.1,0.5,0.2,1,0.2,1.7C428.5,40.6,428.5,41,428.5,41.3z M412.8,38.6c-0.6-1.2-1.3-2.2-2.1-3.1c-0.7-0.8-1.7-1.5-2.8-2.1
			c-1.2-0.6-2.6-1-4.3-1c-1.8,0-3.3,0.4-4.4,1.1c-1.2,0.7-2.2,1.5-2.9,2.4c-0.8,1-1.5,2.2-1.9,3.5c0.2-0.1,0.4-0.3,0.7-0.4
			c0.2-0.1,0.5-0.2,0.8-0.3c0.3-0.1,0.6-0.1,0.9-0.1H412.8z M425.5,19.4h9.8c1,0,1.9,0.1,2.9,0.4c1,0.3,1.8,0.7,2.6,1.2
			c0.8,0.5,1.5,1.1,2.2,1.8c0.6,0.7,1.1,1.5,1.5,2.4l8.9,22.3c0.4,1,0.7,1.8,0.7,2.4c0.1,0.6,0.1,1,0.1,1.2c0-0.2,0.1-0.7,0.2-1.4
			c0.1-0.7,0.3-1.4,0.7-2.3l9-22.3c0.4-0.9,0.9-1.7,1.5-2.4c0.6-0.7,1.3-1.3,2.2-1.8c0.8-0.5,1.7-0.9,2.6-1.2
			c0.9-0.3,1.9-0.4,2.9-0.4h9.7l-5.3,13l6.1,15.1c0.4,1,0.7,1.8,0.7,2.4c0.1,0.6,0.1,1,0.1,1.2c0-0.2,0.1-0.7,0.2-1.4
			c0.1-0.7,0.3-1.4,0.7-2.3l9-22.3c0.4-0.9,0.9-1.7,1.5-2.4c0.6-0.7,1.3-1.3,2.2-1.8s1.7-0.9,2.6-1.2c0.9-0.3,1.9-0.4,2.9-0.4h9.7
			l-20,49.2h-17.6l-5.6-16.5c-0.3-0.8-0.5-1.5-0.5-2.2c0-0.3,0-0.6,0.1-0.9c0-0.1,0.1-0.3,0.1-0.4l-7,20h-17.6L425.5,19.4
			L425.5,19.4z M536.6,19.4c3,0,5.8-0.3,8,0.4c2.2,0.7,4,1.4,5.5,2.5c1.5,1.2,2.8,2.6,3.7,4.2c0.9,1.6,1.7,3.4,2.2,5.2
			c0.5,1.9,0.9,3.8,1,5.9c0.2,2.1,0.3,4.2,0.3,6.3v24.5h-12.1c-0.3-0.4-0.5-0.8-0.7-1.3c-0.2-0.4-0.3-0.9-0.5-1.4
			c-0.2-0.5-0.2-1.2-0.2-1.9c-0.9,1.1-1.9,1.9-2.9,2.6c-1,0.7-2,1.2-3,1.6c-1,0.4-1.9,0.7-2.9,0.8c-0.9,0.2-1.7,0.2-2.5,0.2
			c-2.6,0-5.1-0.4-7.4-1.2s-4.3-1.9-5.9-3.3c-1.7-1.4-3-3.1-4-5.1c-1-2-1.5-4.2-1.5-6.7c0-5.4,2.1-9.5,6.2-12.2
			c4.1-2.7,10.1-4,17.9-4c0.7,0,1.3,0,1.8,0.2c0.5,0.1,0.9,0.2,1.2,0.4c0.3,0.1,0.6,0.3,0.9,0.5c-0.1-2.1-0.6-3.8-1.6-5.1
			c-1-1.3-2.4-1.9-4.1-1.9c-7.6,0-14.8,0.1-20.3,0c-3.2,0.1-7.8,2-9.1,5.2c-9.4-2.5,1.9-14.2,6.8-16.7L536.6,19.4L536.6,19.4z
			 M532.7,56.5c1.4,0,2.9-0.2,4.5-0.6c1.6-0.4,3.2-1,4.8-1.8v-7.3c-0.5-0.1-1.1-0.1-1.8-0.1c-0.7,0-1.5,0-2.4,0
			c-1.2,0-2.4,0.1-3.5,0.3c-1.1,0.2-2.2,0.6-3,1c-0.9,0.5-1.6,1-2.1,1.6c-0.5,0.6-0.8,1.3-0.8,2.1c0,0.6,0.1,1.1,0.3,1.7
			c0.2,0.6,0.5,1.1,0.9,1.6c0.4,0.5,0.8,0.8,1.4,1.1C531.4,56.3,532,56.5,532.7,56.5z"/>
		<path class="st2" d="M106.7,16.1c-0.8,0-1.6,0.1-2.4,0.2c-0.8,0.1-1.5,0.4-2,0.7c-0.6,0.3-1.1,0.7-1.4,1.2c-0.4,0.5-0.5,1-0.5,1.7
			c0,1,0.3,1.8,0.7,2.3c0.5,0.6,1.3,1,2.3,1.5c1,0.4,2.3,0.8,3.8,1.3c1.5,0.4,3.3,1,5.3,1.7c2.6,0.9,5,1.9,7.1,3.2
			c2.1,1.3,4,2.7,5.5,4.4c1.5,1.7,2.7,3.6,3.5,5.7c0.8,2.1,1.3,4.5,1.3,7.1c0,3.2-0.7,6.2-2.1,8.9c-1.4,2.7-3.2,5-5.5,7
			c-2.3,1.9-4.9,3.4-7.9,4.5c-3,1.1-6.1,1.6-9.3,1.6c-2.7,0-5.4-0.4-7.8-1.2c-2.5-0.8-4.8-2-6.8-3.4c-2.1-1.5-3.9-3.2-5.5-5.2
			c-1.6-2-2.8-4.2-3.7-6.6l4.9-2.8c0.8-0.4,1.6-0.8,2.5-1.1c0.9-0.3,1.8-0.4,2.7-0.4c1.3,0,2.6,0.3,3.6,0.8c1.1,0.6,2.1,1.2,3.2,1.8
			c1,0.7,2.1,1.3,3.2,1.8c1.1,0.6,2.3,0.8,3.7,0.8c0.9,0,2-0.2,3.1-0.5c1.1-0.3,2.1-0.7,3.1-1.3c1-0.6,1.7-1.3,2.4-2.1
			c0.6-0.8,0.9-1.8,0.9-2.9c0-1-0.3-1.9-0.9-2.5c-0.6-0.7-1.4-1.2-2.3-1.7c-1-0.5-2.1-0.9-3.4-1.3c-1.3-0.4-2.6-0.9-4-1.5
			c-2.3-0.9-4.6-1.8-6.8-2.9c-2.2-1-4.3-2.3-6-3.8c-1.8-1.5-3.2-3.4-4.3-5.5c-1.1-2.2-1.7-4.9-1.7-8.1c0-3,0.6-5.7,1.9-8.1
			c1.2-2.4,2.9-4.3,4.9-6c2-1.6,4.4-2.9,7-3.7c2.6-0.9,5.3-1.3,8-1.3c2,0,4,0.3,5.8,1c1.9,0.7,3.7,1.5,5.4,2.6
			c1.7,1.1,3.3,2.3,4.7,3.7c1.5,1.4,2.8,2.8,4,4.2l-4.7,4c-0.9,0.8-1.9,1.4-2.9,1.7c-1,0.3-2.2,0.5-3.4,0.5c-1,0-1.9-0.1-2.6-0.4
			c-0.7-0.3-1.5-0.5-2.1-0.8c-0.7-0.3-1.3-0.6-2-0.8C108.2,16.3,107.5,16.1,106.7,16.1L106.7,16.1z M187.6,18.8c3.2,0,6,0.6,8.3,1.9
			c2.3,1.3,4.1,3,5.5,5.1c1.4,2.1,2.5,4.5,3.1,7.2c0.6,2.7,1,5.4,1,8.2v27.4H190V41.7c0-0.8,0-1.7-0.2-2.6c-0.1-0.9-0.3-1.8-0.6-2.5
			c-0.3-0.8-0.7-1.4-1.2-2c-0.5-0.5-1.2-0.8-2-0.8c-1.1,0-2.2,0.1-3.3,0.4c-1.1,0.3-2.1,0.7-3,1.1c-0.9,0.5-1.6,1-2.1,1.6
			c-0.5,0.6-0.8,1.3-0.8,1.9v29.6h-15.3V41.2c0-0.8-0.1-1.7-0.2-2.5c-0.2-0.9-0.4-1.7-0.7-2.4c-0.3-0.7-0.7-1.3-1.2-1.7
			c-0.5-0.5-1.1-0.7-1.8-0.7c-1.1,0-2.2,0.1-3.3,0.4c-1.1,0.3-2.1,0.6-3,1.1c-0.9,0.5-1.6,1-2.2,1.6c-0.5,0.6-0.8,1.3-0.8,2v29.6
			h-15.3V19.4h12c0.2,0.3,0.5,0.7,0.7,1.2c0.2,0.5,0.4,1,0.5,1.5c0.1,0.6,0.2,1.2,0.3,1.9c0.7-1.2,1.7-2.1,2.9-2.8
			c1.2-0.7,2.5-1.2,3.8-1.6c1.3-0.4,2.6-0.6,3.8-0.7c1.2-0.1,2.2-0.1,3.1-0.1c1.4,0,2.6,0.1,3.7,0.4c1.1,0.3,2,0.6,2.9,1.1
			c0.8,0.5,1.6,1,2.3,1.7c0.7,0.6,1.4,1.3,2,2.1c0.9-0.8,2.1-1.5,3.5-2.2c1.4-0.6,2.9-1.2,4.5-1.6c1.6-0.5,3.1-0.8,4.7-1
			C185,18.9,186.4,18.8,187.6,18.8z M212.9,28.8c0.5-0.8,1.1-1.6,1.7-2.4c0.5-0.7,1.1-1.4,1.8-2.1c0.7-0.7,1.4-1.4,2.2-1.9
			c1.9-1.2,3.9-2.2,6-2.8c2.2-0.6,4.6-1,7.2-1c3,0,5.7,0.3,7.9,1c2.2,0.7,4.1,1.6,5.6,2.7c1.5,1.2,2.8,2.6,3.7,4.2
			c1,1.6,1.7,3.4,2.2,5.2c0.5,1.9,0.9,3.8,1,5.9c0.2,2.1,0.3,4.2,0.3,6.3v24.5h-12.1c-0.3-0.4-0.5-0.8-0.7-1.3
			c-0.2-0.4-0.3-0.9-0.5-1.4c-0.2-0.5-0.2-1.2-0.2-1.9c-0.9,1.1-1.9,1.9-2.9,2.6c-1,0.7-2,1.2-3,1.6c-1,0.4-1.9,0.7-2.9,0.8
			c-0.9,0.2-1.7,0.2-2.5,0.2c-2.6,0-5.1-0.4-7.4-1.2c-2.3-0.8-4.3-1.9-5.9-3.3c-1.7-1.4-3-3.1-4-5.1c-1-2-1.5-4.2-1.5-6.7
			c0-5.4,2.1-9.5,6.2-12.2c4.1-2.7,10.1-4,17.9-4c0.7,0,1.3,0,1.8,0.2c0.5,0.1,0.9,0.2,1.2,0.4c0.3,0.1,0.6,0.3,0.9,0.5
			c-0.1-2.1-0.6-3.8-1.6-5.1c-1-1.3-2.4-2-4.1-2c-0.8,0-1.5,0.1-2.2,0.4c-0.7,0.3-1.4,0.6-2.1,0.9c-0.7,0.3-1.4,0.6-2.1,0.9
			c-0.7,0.3-1.5,0.4-2.3,0.4c-1,0-2-0.2-3.1-0.6c-1-0.4-2-0.9-2.8-1.4C216.9,31.3,212.9,28.8,212.9,28.8z M228,56.5
			c1.4,0,2.9-0.2,4.5-0.6c1.6-0.4,3.2-1,4.8-1.8v-7.3c-0.5-0.1-1.1-0.1-1.8-0.1c-0.7,0-1.5,0-2.4,0c-1.2,0-2.4,0.1-3.5,0.3
			c-1.1,0.2-2.2,0.6-3,1c-0.9,0.5-1.6,1-2.1,1.6c-0.5,0.6-0.8,1.3-0.8,2.1c0,0.6,0.1,1.1,0.3,1.7c0.2,0.6,0.5,1.1,0.9,1.6
			c0.4,0.5,0.8,0.8,1.4,1.1C226.7,56.3,227.3,56.5,228,56.5z M268.3,19.4c0.4,0.4,0.7,0.9,0.9,1.4c0.2,0.5,0.3,1,0.4,1.5
			c0.1,0.6,0.2,1.1,0.1,1.7c0.4-0.9,1.1-1.6,1.9-2.3c0.8-0.7,1.7-1.2,2.7-1.6c1-0.4,2.1-0.5,3.2-0.5l16.9,0
			c-1.8,2.8-3.9,14.2-4.9,14.2l-9.4,0c-1.1,0-2.1,0.1-3,0.4c-1,0.3-1.8,0.6-2.6,1.1c-0.7,0.5-1.4,1-1.9,1.5c-0.5,0.6-1,1.2-1,1.8v30
			h-15.3V19.4L268.3,19.4L268.3,19.4z M309.8,33.7v17.5c0,0.7,0.1,1.2,0.3,1.6c0.2,0.4,0.4,0.7,0.7,0.9s0.5,0.4,0.8,0.4
			c0.3,0.1,0.5,0.1,0.7,0.1c0.3,0,0.6,0,0.9-0.1c0.3-0.1,0.5-0.1,0.7-0.1c0.8,0,1.6,0.1,2.4,0.4c0.7,0.2,1.4,0.6,2.1,0.9
			c0.6,0.4,1.2,0.8,1.7,1.3c0.5,0.5,1,1,1.4,1.5c0.9,1.2,1.7,2.5,2.3,4c-0.9,0.9-2,1.8-3.3,2.6c-1.3,0.8-2.6,1.6-4,2.2
			c-1.4,0.6-2.7,1.2-4,1.5c-1.3,0.4-2.5,0.6-3.4,0.6c-2.2,0-4.3-0.4-6.1-1.1c-1.8-0.7-3.3-1.7-4.6-3c-1.3-1.3-2.2-2.8-2.9-4.6
			c-0.7-1.8-1-3.8-1-5.9V33.7h-7c0-6.3-1.4-13.1,7-14.2v-8.7c0-1.2,0.2-2.4,0.6-3.4c0.4-1,0.8-1.9,1.3-2.6c0.5-0.8,1.2-1.6,1.9-2.2
			h11.6v16.8h11.7v14.4L309.8,33.7L309.8,33.7z"/>
	</g>
</g>
</svg>
